<svg width="20" height="26" viewBox="0 0 20 26" fill="none" xmlns="http://www.w3.org/2000/svg">
<path d="M6.74203 7.83587C6.06233 7.83587 5.38263 7.9054 4.75043 8.12383C3.37717 8.59873 2.46781 9.71842 1.97024 11.5478C0.876107 15.5674 2.77005 20.1918 5.20577 22.6824C6.41604 23.9201 7.6791 24.5295 8.58383 24.313C9.03785 24.2048 9.89442 24.1779 10 24.1779C10.1063 24.1779 10.9628 24.2048 11.4162 24.313C12.3209 24.5295 13.584 23.9201 14.7942 22.6824C17.2306 20.1918 19.1239 15.5674 18.0304 11.5478C17.5329 9.71842 16.6235 8.59873 15.2502 8.12383C14.0406 7.70534 12.6555 7.83456 11.4333 7.94804C10.9186 7.99592 10.4329 8.04119 10 8.04119C9.56777 8.04119 9.0814 7.99592 8.56734 7.94804C7.98398 7.8936 7.363 7.83587 6.74203 7.83587ZM8.20439 24.9998C7.15711 24.9998 5.92639 24.3425 4.74119 23.131C3.43325 21.7936 2.31008 19.9051 1.66139 17.9504C0.904478 15.6717 0.794933 13.3995 1.34464 11.3793C1.90226 9.32945 2.9469 8.06611 4.53728 7.51578C5.88019 7.05137 7.33992 7.18715 8.6274 7.30719C9.12629 7.35376 9.59746 7.39771 10 7.39771C10.4026 7.39771 10.8737 7.35376 11.3726 7.30719C12.6608 7.18715 14.1198 7.05137 15.4627 7.51578C17.0538 8.06611 18.0977 9.32945 18.6554 11.3793C19.2051 13.3995 19.0955 15.6717 18.3386 17.9504C17.6899 19.9051 16.5674 21.7936 15.2588 23.131C13.8671 24.5544 12.4113 25.2136 11.265 24.9388C10.9014 24.8522 10.1366 24.822 10 24.822C9.86341 24.822 9.09856 24.8522 8.73561 24.9395C8.5647 24.9801 8.38718 24.9998 8.20439 24.9998Z" fill="#F19B48"/>
<path d="M8.20439 24.9998C7.15711 24.9998 5.92639 24.3425 4.74119 23.131C3.43326 21.7936 2.31008 19.9051 1.66139 17.9504C0.904478 15.6717 0.794933 13.3995 1.34464 11.3793C1.90226 9.32945 2.9469 8.06611 4.53728 7.51578C5.88019 7.05137 7.33992 7.18715 8.6274 7.30719C9.12629 7.35376 9.59746 7.39771 10 7.39771C10.4026 7.39771 10.8737 7.35376 11.3726 7.30719C12.6608 7.18715 14.1198 7.05137 15.4627 7.51578C17.0538 8.06611 18.0977 9.32945 18.6554 11.3793C19.2051 13.3995 19.0955 15.6717 18.3386 17.9504C17.6899 19.9051 16.5674 21.7936 15.2588 23.131C13.8671 24.5544 12.4113 25.2136 11.265 24.9388C10.9014 24.8522 10.1366 24.822 10 24.822C9.86341 24.822 9.09856 24.8522 8.73561 24.9395C8.5647 24.9801 8.38718 24.9998 8.20439 24.9998M6.74203 7.83587C6.06233 7.83587 5.38263 7.9054 4.75043 8.12383C3.37717 8.59873 2.46781 9.71842 1.97024 11.5478C0.876107 15.5674 2.77005 20.1918 5.20577 22.6824C6.41604 23.9201 7.6791 24.5295 8.58383 24.313C9.03785 24.2048 9.89442 24.1779 10 24.1779C10.1063 24.1779 10.9628 24.2048 11.4162 24.313C12.3209 24.5295 13.584 23.9201 14.7942 22.6824C17.2306 20.1918 19.1239 15.5674 18.0304 11.5478C17.5329 9.71842 16.6235 8.59873 15.2502 8.12383C14.0406 7.70534 12.6555 7.83456 11.4333 7.94804C10.9186 7.99592 10.4329 8.04119 10 8.04119C9.56777 8.04119 9.0814 7.99592 8.56733 7.94804C7.98398 7.8936 7.363 7.83587 6.74203 7.83587V7.83587Z" stroke="#F19B48"/>
<path d="M14.2248 20.6063C14.1589 20.6063 14.0929 20.5866 14.0355 20.5453C13.8903 20.441 13.8579 20.2403 13.9622 20.096C14.7745 18.977 15.4094 17.6205 15.7492 16.2765C15.7928 16.1046 15.9683 15.9997 16.1425 16.043C16.3154 16.0863 16.421 16.2614 16.3775 16.4339C16.0178 17.8547 15.3467 19.2892 14.4875 20.4725C14.4241 20.5598 14.3252 20.6063 14.2248 20.6063Z" fill="#F19B48"/>
<path d="M14.2248 20.6063C14.1589 20.6063 14.0929 20.5866 14.0355 20.5453C13.8903 20.441 13.8579 20.2403 13.9622 20.096C14.7745 18.977 15.4094 17.6205 15.7492 16.2765C15.7928 16.1046 15.9683 15.9997 16.1425 16.043C16.3154 16.0863 16.421 16.2614 16.3775 16.4339C16.0178 17.8547 15.3467 19.2892 14.4875 20.4725C14.4241 20.5598 14.3252 20.6063 14.2248 20.6063" stroke="#F19B48"/>
<path d="M3.93678 16.6772C3.7916 16.6772 3.66027 16.5802 3.62332 16.4339C3.22605 14.8649 3.20956 13.3241 3.57581 11.9794C3.62266 11.8076 3.80018 11.7065 3.97241 11.7525C4.14531 11.799 4.24759 11.9755 4.20074 12.1473C3.86353 13.3864 3.88134 14.8144 4.25089 16.2771C4.29444 16.4496 4.18952 16.6241 4.01596 16.6674C3.98957 16.674 3.96317 16.6772 3.93678 16.6772Z" fill="#F19B48"/>
<path d="M3.93678 16.6772C3.7916 16.6772 3.66027 16.5802 3.62332 16.4339C3.22605 14.8649 3.20956 13.3241 3.57581 11.9794C3.62266 11.8076 3.80018 11.7065 3.97241 11.7525C4.14531 11.799 4.24759 11.9755 4.20074 12.1473C3.86353 13.3864 3.88134 14.8144 4.25089 16.2771C4.29444 16.4496 4.18952 16.6241 4.01596 16.6674C3.98957 16.674 3.96317 16.6772 3.93678 16.6772" stroke="#F19B48"/>
<path d="M9.99982 8.0412C9.82957 8.0412 9.68703 7.90935 9.67647 7.73815C9.59134 6.29378 8.54076 3.62083 7.09028 2.72023C6.93851 2.62643 6.8923 2.42768 6.98667 2.27682C7.08104 2.12595 7.281 2.08003 7.43278 2.17449C9.08123 3.1971 10.2275 6.08191 10.3232 7.70011C10.3337 7.87787 10.1978 8.03005 10.019 8.04054C10.0124 8.0412 10.0058 8.0412 9.99982 8.0412Z" fill="#F19B48"/>
<path d="M9.99982 8.0412C9.82957 8.0412 9.68703 7.90935 9.67647 7.73815C9.59134 6.29378 8.54076 3.62083 7.09028 2.72023C6.93851 2.62643 6.8923 2.42768 6.98667 2.27682C7.08104 2.12595 7.281 2.08003 7.43278 2.17449C9.08123 3.1971 10.2275 6.08191 10.3232 7.70011C10.3337 7.87787 10.1978 8.03005 10.019 8.04054C10.0124 8.0412 10.0058 8.0412 9.99982 8.0412" stroke="#F19B48"/>
<path d="M9.90965 5.66995C11.0572 6.11992 12.1929 5.626 12.8337 4.90447C13.5834 4.06093 13.7127 2.97011 13.2099 1.91601C12.9149 2.23218 12.5064 2.528 12.0557 2.85466C11.044 3.588 9.90371 4.41448 9.90965 5.66995ZM10.8177 6.48462C10.3564 6.48462 9.8925 6.3836 9.45564 6.17567C9.35336 6.12648 9.28406 6.02743 9.2735 5.91461C9.11446 4.18949 10.5339 3.16098 11.6742 2.3345C12.2378 1.92585 12.7704 1.54016 12.9591 1.1748C13.0119 1.07248 13.1161 1.00557 13.2316 1.00032C13.3484 0.995076 13.4573 1.05083 13.5194 1.14791C14.6115 2.83695 14.1318 4.41579 13.3194 5.33083C12.6516 6.08253 11.7389 6.48462 10.8177 6.48462Z" fill="#F19B48"/>
<path d="M10.8177 6.48462C10.3564 6.48462 9.8925 6.3836 9.45564 6.17567C9.35336 6.12648 9.28406 6.02743 9.2735 5.91461C9.11446 4.18949 10.5339 3.16098 11.6742 2.3345C12.2378 1.92585 12.7704 1.54016 12.9591 1.1748C13.0119 1.07248 13.1161 1.00557 13.2316 1.00032C13.3484 0.995076 13.4573 1.05083 13.5193 1.14791C14.6115 2.83695 14.1318 4.41579 13.3194 5.33083C12.6516 6.08253 11.7389 6.48462 10.8177 6.48462M9.90965 5.66995C11.0572 6.11992 12.1929 5.626 12.8337 4.90447C13.5834 4.06093 13.7127 2.97011 13.2099 1.91601C12.9149 2.23218 12.5064 2.528 12.0557 2.85466C11.044 3.588 9.90371 4.41448 9.90965 5.66995V5.66995Z" stroke="#F19B48"/>
</svg>
