<svg width="24" height="26" viewBox="0 0 24 26" fill="none" xmlns="http://www.w3.org/2000/svg">
<path d="M7.48174 25C7.3007 25 7.15374 24.8557 7.15374 24.678V17.9432C7.15374 17.004 6.37547 16.2399 5.41951 16.2399C4.46289 16.2399 3.6853 17.004 3.6853 17.9432V24.678C3.6853 24.8557 3.53834 25 3.3573 25C3.17626 25 3.0293 24.8557 3.0293 24.678V17.9432C3.0293 16.6491 4.10148 15.5964 5.41951 15.5964C6.73754 15.5964 7.80974 16.6491 7.80974 17.9432V24.678C7.80974 24.8557 7.66278 25 7.48174 25Z" fill="#F19B48"/>
<path d="M7.48174 25C7.3007 25 7.15374 24.8557 7.15374 24.678V17.9432C7.15374 17.004 6.37547 16.2399 5.41951 16.2399C4.46289 16.2399 3.6853 17.004 3.6853 17.9432V24.678C3.6853 24.8557 3.53834 25 3.3573 25C3.17626 25 3.0293 24.8557 3.0293 24.678V17.9432C3.0293 16.6491 4.10148 15.5964 5.41951 15.5964C6.73754 15.5964 7.80974 16.6491 7.80974 17.9432V24.678C7.80974 24.8557 7.66278 25 7.48174 25" stroke="#F19B48"/>
<path d="M18.742 25C18.561 25 18.414 24.8557 18.414 24.678V19.7469C18.414 18.8077 17.6357 18.0442 16.6798 18.0442C15.7232 18.0442 14.9449 18.8077 14.9449 19.7469V24.678C14.9449 24.8557 14.7986 25 14.6176 25C14.4365 25 14.2896 24.8557 14.2896 24.678V19.7469C14.2896 18.4529 15.3617 17.4001 16.6798 17.4001C17.9971 17.4001 19.0693 18.4529 19.0693 19.7469V24.678C19.0693 24.8557 18.923 25 18.742 25Z" fill="#F19B48"/>
<path d="M18.742 25C18.561 25 18.414 24.8557 18.414 24.678V19.7469C18.414 18.8077 17.6357 18.0442 16.6798 18.0442C15.7232 18.0442 14.9449 18.8077 14.9449 19.7469V24.678C14.9449 24.8557 14.7986 25 14.6176 25C14.4365 25 14.2896 24.8557 14.2896 24.678V19.7469C14.2896 18.4529 15.3617 17.4001 16.6798 17.4001C17.9971 17.4001 19.0693 18.4529 19.0693 19.7469V24.678C19.0693 24.8557 18.923 25 18.742 25" stroke="#F19B48"/>
<path d="M4.35454 16.5311C4.34585 16.5311 4.33716 16.5304 4.32848 16.5298C4.14744 16.5153 4.01317 16.3606 4.02786 16.1835L4.46609 10.8091C4.4721 10.4595 4.33382 10.1158 4.08598 9.86458L1.40316 7.15048C1.38379 7.1308 1.36775 7.10982 1.35372 7.08621C0.739799 6.03546 0.939546 4.74204 1.84006 3.94119L5.05129 1.08345C5.18556 0.964074 5.39332 0.973915 5.5149 1.10575C5.63649 1.23759 5.6258 1.44092 5.49152 1.56029L2.28029 4.41802C1.61961 5.0057 1.4673 5.95216 1.90285 6.73202L4.55628 9.41659C4.92837 9.79308 5.13412 10.3093 5.12143 10.8333C5.12076 10.8392 5.12077 10.8451 5.1201 10.851L4.68119 16.2346C4.66716 16.4032 4.52422 16.5311 4.35454 16.5311Z" fill="#F19B48"/>
<path d="M4.35454 16.5311C4.34585 16.5311 4.33716 16.5304 4.32848 16.5298C4.14744 16.5153 4.01317 16.3606 4.02786 16.1835L4.46609 10.8091C4.4721 10.4595 4.33382 10.1158 4.08598 9.86458L1.40316 7.15048C1.38379 7.1308 1.36775 7.10982 1.35372 7.08621C0.739799 6.03546 0.939546 4.74204 1.84006 3.94119L5.05129 1.08345C5.18556 0.964074 5.39332 0.973915 5.5149 1.10575C5.63649 1.23759 5.6258 1.44092 5.49152 1.56029L2.28029 4.41802C1.61961 5.0057 1.4673 5.95216 1.90285 6.73202L4.55628 9.4166C4.92837 9.79308 5.13412 10.3093 5.12143 10.8333C5.12076 10.8392 5.12077 10.8451 5.1201 10.851L4.68119 16.2346C4.66716 16.4032 4.52422 16.5311 4.35454 16.5311" stroke="#F19B48"/>
<path d="M6.63197 16.6275C6.45494 16.6275 6.30865 16.4891 6.30397 16.314C6.29729 16.0667 6.14164 10.262 6.13964 10.1682C6.13162 9.71961 5.88712 9.29788 5.64996 9.11357L2.82619 6.91698C2.80882 6.90386 2.79279 6.88877 2.77876 6.87172C2.07733 6.05185 2.04793 4.8942 2.70661 4.05662L5.01267 1.12542C5.1229 0.984404 5.32864 0.95882 5.47227 1.06704C5.61523 1.17592 5.64195 1.37794 5.53106 1.51896L3.22568 4.45016C2.76273 5.03784 2.77876 5.84918 3.26041 6.43359L6.05746 8.60853C6.48768 8.94369 6.78428 9.56548 6.79564 10.1571C6.79698 10.2555 6.95798 16.2366 6.95999 16.2969C6.96466 16.4747 6.8217 16.6229 6.64066 16.6275C6.63799 16.6275 6.63464 16.6275 6.63197 16.6275Z" fill="#F19B48"/>
<path d="M6.63197 16.6275C6.45494 16.6275 6.30865 16.4891 6.30397 16.314C6.29729 16.0667 6.14164 10.262 6.13964 10.1682C6.13162 9.71961 5.88712 9.29788 5.64996 9.11357L2.82619 6.91697C2.80882 6.90386 2.79279 6.88877 2.77876 6.87172C2.07733 6.05185 2.04793 4.8942 2.70661 4.05662L5.01267 1.12542C5.1229 0.984403 5.32864 0.958821 5.47227 1.06704C5.61523 1.17592 5.64195 1.37794 5.53106 1.51896L3.22568 4.45016C2.76273 5.03784 2.77876 5.84918 3.26041 6.43359L6.05746 8.60853C6.48768 8.94369 6.78428 9.56548 6.79564 10.1571C6.79698 10.2555 6.95798 16.2366 6.95999 16.2969C6.96466 16.4747 6.8217 16.6229 6.64066 16.6275C6.63799 16.6275 6.63464 16.6275 6.63197 16.6275" stroke="#F19B48"/>
<path d="M16.6799 1.64425C13.5562 1.64425 11.015 4.13862 11.015 7.20559C11.015 10.2726 13.5562 12.7676 16.6799 12.7676C19.8029 12.7676 22.3441 10.2726 22.3441 7.20559C22.3441 4.13862 19.8029 1.64425 16.6799 1.64425ZM16.6799 13.411C13.1948 13.411 10.3596 10.6274 10.3596 7.20559C10.3596 3.78378 13.1948 1.00017 16.6799 1.00017C20.1644 1.00017 23.0002 3.78378 23.0002 7.20559C23.0002 10.6274 20.1644 13.411 16.6799 13.411Z" fill="#F19B48" stroke="#F19B48"/>
<path d="M19.7741 6.07874C19.6512 6.07874 19.5336 6.01052 19.4775 5.89443C19.0626 5.0339 18.2496 4.4062 17.3024 4.21599C17.1253 4.18057 17.0111 4.01071 17.0472 3.83624C17.0833 3.66243 17.2569 3.54961 17.434 3.58568C18.5816 3.8159 19.567 4.57608 20.07 5.61896C20.1475 5.77965 20.078 5.97118 19.9144 6.04726C19.8689 6.06825 19.8208 6.07874 19.7741 6.07874Z" fill="#F19B48"/>
<path d="M19.7741 6.07874C19.6512 6.07874 19.5336 6.01052 19.4775 5.89443C19.0626 5.0339 18.2496 4.4062 17.3024 4.21599C17.1253 4.18057 17.0111 4.01071 17.0472 3.83624C17.0833 3.66243 17.2569 3.54961 17.434 3.58568C18.5816 3.8159 19.567 4.57608 20.07 5.61896C20.1475 5.77965 20.078 5.97118 19.9144 6.04726C19.8689 6.06825 19.8208 6.07874 19.7741 6.07874" stroke="#F19B48"/>
<path d="M15.5274 10.6818C15.4907 10.6818 15.4539 10.6759 15.4172 10.6635C14.4766 10.3335 13.6956 9.63371 13.2748 8.743C13.198 8.58165 13.2694 8.39078 13.4338 8.31535C13.5981 8.24058 13.7932 8.31076 13.8693 8.47211C14.2167 9.20737 14.8614 9.78521 15.6376 10.0568C15.808 10.1171 15.8968 10.3007 15.836 10.4687C15.7886 10.5998 15.6623 10.6818 15.5274 10.6818Z" fill="#F19B48" stroke="#F19B48"/>
<path d="M15.4886 18.3387C15.3076 18.3387 15.1606 18.1945 15.1606 18.0167V12.9729C15.1606 12.7951 15.3076 12.6508 15.4886 12.6508C15.6697 12.6508 15.8166 12.7951 15.8166 12.9729V18.0167C15.8166 18.1945 15.6697 18.3387 15.4886 18.3387Z" fill="#F19B48" stroke="#F19B48"/>
<path d="M17.9464 18.3387C17.7654 18.3387 17.6184 18.1945 17.6184 18.0167V12.9729C17.6184 12.7951 17.7654 12.6508 17.9464 12.6508C18.1274 12.6508 18.2744 12.7951 18.2744 12.9729V18.0167C18.2744 18.1945 18.1274 18.3387 17.9464 18.3387Z" fill="#F19B48" stroke="#F19B48"/>
</svg>
