<svg  viewBox="0 0 120 120" fill="none" xmlns="http://www.w3.org/2000/svg">
<path d="M60 7.5C31.0051 7.5 7.5 31.005 7.5 60C7.5 88.9949 31.0051 112.5 60 112.5C88.9949 112.5 112.5 88.9949 112.5 60C112.5 31.005 88.9949 7.5 60 7.5ZM60 0C93.1371 0 120 26.8629 120 60C120 93.1371 93.1371 120 60 120C26.8629 120 0 93.1371 0 60C0 26.8629 26.8629 0 60 0Z" fill="#73DF8F"/>
<path d="M32.136 48.246C33.9287 49.2831 36.2227 48.6704 37.2597 46.8777C41.8041 39.0218 50.2887 33.75 60.0002 33.75C69.7117 33.75 78.1963 39.0218 82.7407 46.8777C83.7777 48.6704 86.0717 49.2831 87.8645 48.246C89.6572 47.209 90.2698 44.915 89.2328 43.1223C83.4029 33.0442 72.4972 26.25 60.0002 26.25C47.5032 26.25 36.5975 33.0442 30.7677 43.1223C29.7306 44.915 30.3432 47.209 32.136 48.246Z" fill="#73DF8F"/>
<path d="M52.5 71.25C52.5 65.0368 49.1421 60 45 60C40.8579 60 37.5 65.0368 37.5 71.25C37.5 77.4632 40.8579 82.5 45 82.5C49.1421 82.5 52.5 77.4632 52.5 71.25Z" fill="#73DF8F"/>
<path d="M82.5 71.25C82.5 65.0368 79.1421 60 75 60C70.8579 60 67.5 65.0368 67.5 71.25C67.5 77.4632 70.8579 82.5 75 82.5C79.1421 82.5 82.5 77.4632 82.5 71.25Z" fill="#73DF8F"/>
</svg>
