<svg width="24" height="26" viewBox="0 0 24 26" fill="none" xmlns="http://www.w3.org/2000/svg">
<path d="M22.6894 25H1.30992C1.13852 25 1 24.8557 1 24.678V2.51341C1 2.33571 1.13852 2.19211 1.30992 2.19211H7.8752C8.0466 2.19211 8.18575 2.33571 8.18575 2.51341C8.18575 2.69111 8.0466 2.83537 7.8752 2.83537H1.62047V24.3561H22.3795V2.83537H15.918C15.7466 2.83537 15.6081 2.69111 15.6081 2.51341C15.6081 2.33571 15.7466 2.19211 15.918 2.19211H22.6894C22.8608 2.19211 23 2.33571 23 2.51341V24.678C23 24.8557 22.8608 25 22.6894 25Z" fill="#F19B48" stroke="#F19B48"/>
<path d="M20.3416 22.6289H18.7084C18.5934 22.6289 18.5 22.4846 18.5 22.3069C18.5 22.1292 18.5934 21.985 18.7084 21.985H20.3416C20.4566 21.985 20.55 22.1292 20.55 22.3069C20.55 22.4846 20.4566 22.6289 20.3416 22.6289Z" fill="#F19B48"/>
<path d="M20.3416 22.6289H18.7084C18.5934 22.6289 18.5 22.4846 18.5 22.3069C18.5 22.1292 18.5934 21.985 18.7084 21.985H20.3416C20.4566 21.985 20.55 22.1292 20.55 22.3069C20.55 22.4846 20.4566 22.6289 20.3416 22.6289" stroke="#F19B48"/>
<path d="M11.9996 13.8809C12.6871 13.8809 13.2348 14.1262 13.627 14.6094C14.4524 15.6271 14.355 17.4559 14.1286 18.8106C13.8629 20.3955 14.1526 21.126 14.5131 21.282C14.7554 21.3863 15.0773 21.2479 15.2797 20.9529C15.8085 20.1811 16.3853 18.2756 16.4814 15.7596C16.5257 14.6009 16.7155 13.8803 16.8983 13.1839C17.1095 12.3793 17.3094 11.6194 17.3094 10.1787C17.3094 8.53026 16.0362 7.18932 14.4707 7.18932C14.1456 7.18932 13.8262 7.24571 13.5226 7.35784C13.0274 7.53947 12.5157 7.6339 12.0021 7.63783C12.0009 7.63783 11.999 7.63783 11.9971 7.63783C11.4841 7.6339 10.9724 7.53947 10.4772 7.35784C10.1736 7.24571 9.85417 7.18932 9.52844 7.18932C7.96365 7.18932 6.69044 8.53026 6.69044 10.1787C6.69044 11.6194 6.88968 12.3793 7.10093 13.1839C7.28435 13.8803 7.47347 14.6009 7.51774 15.7596C7.61388 18.2756 8.19071 20.1811 8.72011 20.9529C8.92188 21.2479 9.24509 21.3863 9.4867 21.282C9.84659 21.126 10.1369 20.3955 9.87125 18.8106C9.52211 16.7254 9.6543 15.3911 10.2887 14.6094C10.6808 14.1262 11.2564 13.8809 11.9996 13.8809ZM14.687 21.9607C14.5466 21.9607 14.4068 21.9332 14.274 21.8761C13.825 21.682 13.1292 21.0112 13.5169 18.6998C13.806 16.9759 13.6763 15.6704 13.152 15.0239C12.8794 14.6881 12.5024 14.5249 11.9996 14.5249C11.4405 14.5249 11.0363 14.6881 10.7637 15.0239C10.2634 15.6402 10.1717 16.8428 10.4829 18.6998C10.87 21.0112 10.1748 21.682 9.72577 21.8761C9.20966 22.0984 8.58855 21.8722 8.21349 21.326C7.5032 20.2886 6.98645 18.1143 6.8979 15.7851C6.85616 14.6993 6.68412 14.0455 6.50259 13.3531C6.28944 12.5426 6.06934 11.7053 6.06934 10.1787C6.06934 9.20893 6.42669 8.29814 7.075 7.61357C7.7271 6.92506 8.59804 6.54606 9.52844 6.54606C9.92501 6.54606 10.314 6.61491 10.6846 6.75064C11.1135 6.90867 11.5562 6.99063 11.9996 6.99457C12.4436 6.99063 12.8857 6.90867 13.3152 6.75064C13.6858 6.61491 14.0748 6.54606 14.4707 6.54606C15.4011 6.54606 16.2727 6.92506 16.9248 7.61357C17.5731 8.29814 17.9305 9.20893 17.9305 10.1787C17.9305 11.7053 17.7104 12.5426 17.4972 13.3531C17.3151 14.0455 17.1437 14.6993 17.1019 15.7851C17.0127 18.1143 16.4966 20.2886 15.7857 21.326C15.5074 21.7312 15.0931 21.9607 14.687 21.9607Z" fill="#F19B48"/>
<path d="M14.687 21.9607C14.5466 21.9607 14.4069 21.9332 14.274 21.8761C13.825 21.682 13.1292 21.0112 13.5169 18.6998C13.806 16.9759 13.6763 15.6704 13.152 15.0239C12.8794 14.6881 12.5024 14.5249 11.9996 14.5249C11.4405 14.5249 11.0363 14.6881 10.7637 15.0239C10.2634 15.6402 10.1717 16.8428 10.4829 18.6998C10.87 21.0112 10.1748 21.682 9.72577 21.8761C9.20966 22.0984 8.58855 21.8722 8.21349 21.326C7.5032 20.2886 6.98645 18.1143 6.8979 15.7851C6.85616 14.6993 6.68412 14.0455 6.50259 13.3531C6.28944 12.5426 6.06934 11.7053 6.06934 10.1787C6.06934 9.20893 6.42669 8.29814 7.075 7.61357C7.7271 6.92506 8.59804 6.54606 9.52844 6.54606C9.92501 6.54606 10.314 6.61491 10.6846 6.75064C11.1135 6.90867 11.5562 6.99063 11.9996 6.99457C12.4436 6.99063 12.8857 6.90867 13.3152 6.75064C13.6858 6.61491 14.0748 6.54606 14.4707 6.54606C15.4011 6.54606 16.2727 6.92506 16.9248 7.61357C17.5731 8.29814 17.9305 9.20893 17.9305 10.1787C17.9305 11.7053 17.7104 12.5426 17.4972 13.3531C17.3151 14.0455 17.1437 14.6993 17.1019 15.7851C17.0127 18.1143 16.4966 20.2886 15.7857 21.326C15.5074 21.7312 15.0931 21.9607 14.687 21.9607M11.9996 13.8809C12.6871 13.8809 13.2348 14.1262 13.627 14.6094C14.4524 15.6271 14.355 17.4559 14.1286 18.8106C13.8629 20.3955 14.1526 21.126 14.5131 21.282C14.7554 21.3863 15.0773 21.2479 15.2797 20.9529C15.8085 20.1811 16.3853 18.2756 16.4814 15.7596C16.5257 14.6009 16.7155 13.8803 16.8983 13.1839C17.1095 12.3793 17.3094 11.6194 17.3094 10.1787C17.3094 8.53026 16.0362 7.18932 14.4707 7.18932C14.1456 7.18932 13.8262 7.24571 13.5226 7.35784C13.0274 7.53947 12.5157 7.6339 12.0021 7.63783C12.0009 7.63783 11.999 7.63783 11.9971 7.63783C11.4841 7.6339 10.9724 7.53947 10.4772 7.35784C10.1736 7.24571 9.85417 7.18932 9.52844 7.18932C7.96365 7.18932 6.69044 8.53026 6.69044 10.1787C6.69044 11.6194 6.88968 12.3793 7.10093 13.1839C7.28435 13.8803 7.47347 14.6009 7.51774 15.7596C7.61388 18.2756 8.19071 20.1811 8.72011 20.9529C8.92188 21.2479 9.24509 21.3863 9.4867 21.282C9.84659 21.126 10.1369 20.3955 9.87125 18.8106C9.52211 16.7254 9.6543 15.3911 10.2887 14.6094C10.6808 14.1262 11.2564 13.8809 11.9996 13.8809V13.8809Z" stroke="#F19B48"/>
<path d="M8.1858 3.38355H15.6081V1.64327H8.1858V3.38355ZM15.918 4.02747H7.87525C7.70384 4.02747 7.5647 3.88321 7.5647 3.70551V1.32197C7.5647 1.14361 7.70384 1.00001 7.87525 1.00001H15.918C16.0894 1.00001 16.2286 1.14361 16.2286 1.32197V3.70551C16.2286 3.88321 16.0894 4.02747 15.918 4.02747Z" fill="#F19B48" stroke="#F19B48"/>
</svg>
