<svg width="22" height="26" viewBox="0 0 22 26" fill="none" xmlns="http://www.w3.org/2000/svg">
<path d="M6.74692 1.64408C3.93957 1.64408 1.65576 3.92136 1.65576 6.72074C1.65576 9.0964 2.00301 10.3485 2.37029 11.6734C2.42037 11.8531 2.46979 12.0322 2.51853 12.2145C2.6808 12.8206 3.23706 13.2371 3.87279 13.2305L18.208 13.058C18.8244 13.0508 19.3666 12.6356 19.5269 12.0486C19.5609 11.9227 19.5957 11.7987 19.6297 11.6734C19.9977 10.3485 20.3449 9.09706 20.3449 6.72074C20.3449 3.92136 18.0604 1.64408 15.2531 1.64408C14.6695 1.64408 14.0972 1.73984 13.5516 1.92939C12.7209 2.21864 11.8634 2.36884 11.0027 2.3754C11.0007 2.3754 10.9993 2.3754 10.9973 2.3754C10.1366 2.36884 9.27913 2.21864 8.44842 1.92939C7.90351 1.73984 7.33122 1.64408 6.74692 1.64408ZM3.85543 13.8746C2.92989 13.8746 2.12187 13.262 1.88481 12.3785C1.83673 12.1981 1.78731 12.0204 1.7379 11.8427C1.37529 10.5354 1 9.18298 1 6.72074C1 5.1938 1.59366 3.75869 2.67146 2.6804C3.7546 1.59685 5.20167 0.999989 6.74692 0.999989C7.40601 0.999989 8.05175 1.10886 8.66745 1.32269C9.42872 1.58767 10.2134 1.72541 11 1.73197C11.7873 1.72541 12.572 1.58767 13.3326 1.32269C13.9483 1.10886 14.5947 0.999989 15.2531 0.999989C16.7983 0.999989 18.2454 1.59685 19.3286 2.6804C20.4064 3.75869 21 5.1938 21 6.72074C21 9.18298 20.6247 10.5354 20.2621 11.8427C20.228 11.9666 20.1933 12.0906 20.1599 12.2152C19.9235 13.0797 19.1249 13.691 18.216 13.7021L3.8808 13.874C3.87212 13.8746 3.86344 13.8746 3.85543 13.8746Z" fill="#F19B48"/>
<path d="M3.85543 13.8746C2.92989 13.8746 2.12187 13.262 1.88481 12.3785C1.83673 12.1981 1.78731 12.0204 1.7379 11.8427C1.37529 10.5354 1 9.18298 1 6.72074C1 5.1938 1.59366 3.75869 2.67146 2.6804C3.7546 1.59685 5.20167 0.999989 6.74692 0.999989C7.40601 0.999989 8.05175 1.10886 8.66745 1.32269C9.42872 1.58767 10.2134 1.72541 11 1.73197C11.7873 1.72541 12.572 1.58767 13.3326 1.32269C13.9483 1.10886 14.5947 0.999989 15.2531 0.999989C16.7983 0.999989 18.2454 1.59685 19.3286 2.6804C20.4064 3.75869 21 5.1938 21 6.72074C21 9.18298 20.6247 10.5354 20.2621 11.8427C20.228 11.9666 20.1933 12.0906 20.1599 12.2152C19.9235 13.0797 19.1249 13.691 18.216 13.7021L3.8808 13.874C3.87212 13.8746 3.86344 13.8746 3.85543 13.8746M6.74692 1.64408C3.93957 1.64408 1.65576 3.92136 1.65576 6.72074C1.65576 9.0964 2.00301 10.3485 2.37029 11.6734C2.42037 11.8531 2.46979 12.0322 2.51853 12.2145C2.6808 12.8206 3.23706 13.2371 3.87279 13.2305L18.208 13.058C18.8244 13.0508 19.3666 12.6356 19.5269 12.0486C19.5609 11.9227 19.5957 11.7987 19.6297 11.6734C19.9977 10.3485 20.3449 9.09706 20.3449 6.72074C20.3449 3.92136 18.0604 1.64408 15.2531 1.64408C14.6695 1.64408 14.0972 1.73984 13.5516 1.92939C12.7209 2.21864 11.8634 2.36884 11.0027 2.3754C11.0007 2.3754 10.9993 2.3754 10.9973 2.3754C10.1366 2.36884 9.27913 2.21864 8.44842 1.92939C7.90351 1.73984 7.33122 1.64408 6.74692 1.64408Z" stroke="#F19B48"/>
<path d="M10.9999 25C10.2447 25 9.58956 24.5494 9.3318 23.8515L5.55284 13.6385C5.4914 13.4713 5.57888 13.287 5.74916 13.226C5.91944 13.165 6.10709 13.2515 6.1692 13.4188L9.94749 23.6318C10.1452 24.1657 10.6206 24.3559 10.9999 24.3559C11.3792 24.3559 11.8547 24.1657 12.0523 23.6318L15.8313 13.4188C15.8927 13.2515 16.081 13.165 16.2513 13.226C16.4209 13.287 16.5091 13.4713 16.447 13.6385L12.668 23.8515C12.4103 24.5494 11.7558 25 10.9999 25Z" fill="#F19B48" stroke="#F19B48"/>
<path d="M14.0917 22.4243C14.0784 22.4243 14.0657 22.423 14.0523 22.4217L7.91278 21.6956C7.73315 21.6746 7.60494 21.5139 7.62698 21.3375C7.64835 21.161 7.81128 21.0351 7.99092 21.0567L14.1305 21.7828C14.3101 21.8038 14.4383 21.9638 14.417 22.1403C14.3969 22.3043 14.2554 22.4243 14.0917 22.4243Z" fill="#F19B48" stroke="#F19B48"/>
<path d="M14.9825 20.1181C14.9679 20.1181 14.9525 20.1168 14.9371 20.1149L6.88839 19.0274C6.70875 19.0031 6.58388 18.8411 6.60859 18.6647C6.63329 18.4889 6.79757 18.3656 6.97787 18.3898L15.0266 19.4773C15.2062 19.5016 15.3311 19.6643 15.3064 19.84C15.2844 20.0014 15.1435 20.1181 14.9825 20.1181Z" fill="#F19B48"/>
<path d="M14.9825 20.1181C14.9679 20.1181 14.9525 20.1168 14.9371 20.1149L6.88839 19.0274C6.70875 19.0031 6.58388 18.8411 6.60859 18.6647C6.63329 18.4889 6.79757 18.3656 6.97787 18.3898L15.0266 19.4773C15.2062 19.5016 15.3311 19.6643 15.3064 19.84C15.2844 20.0014 15.1435 20.1181 14.9825 20.1181" stroke="#F19B48"/>
<path d="M15.8286 17.753C15.8146 17.753 15.7999 17.7516 15.7846 17.7497L5.81729 16.4326C5.63765 16.409 5.51211 16.247 5.53615 16.0712C5.56019 15.8948 5.72446 15.7715 5.90476 15.7951L15.872 17.1115C16.0517 17.1358 16.1772 17.2978 16.1532 17.4735C16.1311 17.6356 15.9902 17.753 15.8286 17.753Z" fill="#F19B48"/>
<path d="M15.8286 17.753C15.8146 17.753 15.7999 17.7516 15.7846 17.7497L5.81729 16.4326C5.63765 16.409 5.51211 16.247 5.53615 16.0712C5.56019 15.8948 5.72446 15.7715 5.90476 15.7951L15.872 17.1115C16.0517 17.1358 16.1772 17.2978 16.1532 17.4735C16.1311 17.6356 15.9902 17.753 15.8286 17.753" stroke="#F19B48"/>
<path d="M16.5157 15.4081C16.5017 15.4081 16.4883 15.4075 16.4743 15.4055L5.91404 14.1016C5.73441 14.0793 5.60687 13.9179 5.62957 13.7421C5.65227 13.5657 5.81588 13.4404 5.99551 13.4627L16.5558 14.7667C16.7354 14.789 16.863 14.9503 16.8402 15.1261C16.8195 15.2894 16.6786 15.4081 16.5157 15.4081Z" fill="#F19B48" stroke="#F19B48"/>
</svg>
