<svg width="26" height="14" viewBox="0 0 26 14" fill="none" xmlns="http://www.w3.org/2000/svg">
<path d="M7.81093 12.2683H12.6659V8.20447C12.6659 6.6837 11.5771 5.44682 10.2384 5.44682C8.89972 5.44682 7.81093 6.6837 7.81093 8.20447V12.2683ZM12.9879 13H7.48887C7.31112 13 7.16748 12.8361 7.16748 12.6342V8.20447C7.16748 6.2806 8.54488 4.71587 10.2384 4.71587C11.9319 4.71587 13.31 6.2806 13.31 8.20447V12.6342C13.31 12.8361 13.1657 13 12.9879 13Z" fill="#F19B48" stroke="#F19B48"/>
<path d="M7.48891 12.6349H2.9219C2.74415 12.6349 2.59985 12.471 2.59985 12.2691V7.67547C2.59985 6.04368 3.76866 4.71589 5.20573 4.71589C6.64215 4.71589 7.81097 6.04368 7.81097 7.67547V8.2045C7.81097 8.40642 7.66666 8.57034 7.48891 8.57034C7.31117 8.57034 7.16752 8.40642 7.16752 8.2045V7.67547C7.16752 6.44678 6.28731 5.44685 5.20573 5.44685C4.1235 5.44685 3.24394 6.44678 3.24394 7.67547V11.904H7.48891C7.66666 11.904 7.81097 12.0671 7.81097 12.2691C7.81097 12.471 7.66666 12.6349 7.48891 12.6349Z" fill="#F19B48"/>
<path d="M7.48891 12.6349H2.9219C2.74415 12.6349 2.59985 12.471 2.59985 12.2691V7.67547C2.59985 6.04368 3.76866 4.71589 5.20573 4.71589C6.64215 4.71589 7.81097 6.04368 7.81097 7.67547V8.2045C7.81097 8.40642 7.66666 8.57034 7.48891 8.57034C7.31117 8.57034 7.16752 8.40642 7.16752 8.2045V7.67547C7.16752 6.44678 6.28731 5.44684 5.20573 5.44684C4.1235 5.44684 3.24394 6.44678 3.24394 7.67547V11.904H7.48891C7.66666 11.904 7.81097 12.0671 7.81097 12.2691C7.81097 12.471 7.66666 12.6349 7.48891 12.6349" stroke="#F19B48"/>
<path d="M23.0539 12.6349H18.4868C18.3091 12.6349 18.1648 12.471 18.1648 12.2691C18.1648 12.0671 18.3091 11.904 18.4868 11.904H22.7325V7.67547C22.7325 6.44678 21.8523 5.44685 20.7707 5.44685C19.6891 5.44685 18.8089 6.44678 18.8089 7.67547V8.2045C18.8089 8.40642 18.6646 8.57034 18.4868 8.57034C18.3091 8.57034 18.1648 8.40642 18.1648 8.2045V7.67547C18.1648 6.04368 19.3336 4.71589 20.7707 4.71589C22.2071 4.71589 23.3759 6.04368 23.3759 7.67547V12.2691C23.3759 12.471 23.2316 12.6349 23.0539 12.6349Z" fill="#F19B48"/>
<path d="M23.0539 12.6349H18.4868C18.3091 12.6349 18.1648 12.471 18.1648 12.2691C18.1648 12.0671 18.3091 11.904 18.4868 11.904H22.7325V7.67547C22.7325 6.44678 21.8523 5.44684 20.7707 5.44684C19.6891 5.44684 18.8089 6.44678 18.8089 7.67547V8.2045C18.8089 8.40642 18.6646 8.57034 18.4868 8.57034C18.3091 8.57034 18.1648 8.40642 18.1648 8.2045V7.67547C18.1648 6.04368 19.3336 4.71589 20.7707 4.71589C22.2071 4.71589 23.3759 6.04368 23.3759 7.67547V12.2691C23.3759 12.471 23.2316 12.6349 23.0539 12.6349" stroke="#F19B48"/>
<path d="M13.3099 12.2683H18.1648V8.20447C18.1648 6.6837 17.076 5.44682 15.7374 5.44682C14.3987 5.44682 13.3099 6.6837 13.3099 8.20447V12.2683ZM18.4869 13H12.9878C12.8101 13 12.6658 12.8361 12.6658 12.6342V8.20447C12.6658 6.2806 14.0438 4.71587 15.7374 4.71587C17.4309 4.71587 18.8089 6.2806 18.8089 8.20447V12.6342C18.8089 12.8361 18.6646 13 18.4869 13Z" fill="#F19B48" stroke="#F19B48"/>
<path d="M23.054 9.27371C22.9149 9.27371 22.787 9.17015 22.7457 9.0107C22.6952 8.81697 22.7929 8.6143 22.9634 8.55692C23.7833 8.28272 24.3566 7.35655 24.3566 6.30595V4.06241C24.3566 2.77709 23.5098 1.73097 22.4689 1.73097H3.53112C2.49086 1.73097 1.64409 2.77709 1.64409 4.06241V6.30595C1.64409 7.34463 2.20817 8.26707 3.01624 8.55021C3.18611 8.60908 3.28188 8.81399 3.2294 9.00697C3.17693 9.19995 2.99721 9.308 2.82668 9.24913C1.75166 8.87285 1 7.66279 1 6.30595V4.06241C1 2.37399 2.13602 1 3.53112 1H22.4689C23.8646 1 25 2.37399 25 4.06241V6.30595C25 7.67918 24.2372 8.89296 23.1451 9.25881C23.1149 9.2685 23.0841 9.27371 23.054 9.27371Z" fill="#F19B48"/>
<path d="M23.054 9.27371C22.9149 9.27371 22.787 9.17015 22.7457 9.0107C22.6952 8.81697 22.7929 8.6143 22.9634 8.55692C23.7833 8.28272 24.3566 7.35655 24.3566 6.30595V4.06241C24.3566 2.77709 23.5098 1.73097 22.4689 1.73097H3.53112C2.49086 1.73097 1.64409 2.77709 1.64409 4.06241V6.30595C1.64409 7.34463 2.20817 8.26707 3.01624 8.55021C3.18611 8.60908 3.28188 8.81399 3.2294 9.00697C3.17693 9.19995 2.99721 9.308 2.82668 9.24913C1.75166 8.87285 1 7.66279 1 6.30595V4.06241C1 2.37399 2.13602 1 3.53112 1H22.4689C23.8646 1 25 2.37399 25 4.06241V6.30595C25 7.67918 24.2372 8.89296 23.1451 9.25881C23.1149 9.2685 23.0841 9.27371 23.054 9.27371" stroke="#F19B48"/>
</svg>
