<svg width="20" height="20" viewBox="0 0 20 20" fill="none" xmlns="http://www.w3.org/2000/svg">
<g clip-path="url(#clip0_1022_300)">
<path d="M10.0001 18.3334C14.6025 18.3334 18.3334 14.6024 18.3334 10C18.3334 5.39765 14.6025 1.66669 10.0001 1.66669C5.39771 1.66669 1.66675 5.39765 1.66675 10C1.66675 14.6024 5.39771 18.3334 10.0001 18.3334Z" stroke="url(#paint0_linear_1022_300)" stroke-width="1.5" stroke-linecap="round" stroke-linejoin="round"/>
<path d="M6.66675 11.6667C6.66675 11.6667 7.91675 13.3334 10.0001 13.3334C12.0834 13.3334 13.3334 11.6667 13.3334 11.6667" stroke="url(#paint1_linear_1022_300)" stroke-width="1.5" stroke-linecap="round" stroke-linejoin="round"/>
<path d="M7.5 7.5H7.50833" stroke="url(#paint2_linear_1022_300)" stroke-width="1.5" stroke-linecap="round" stroke-linejoin="round"/>
<path d="M12.5 7.5H12.5083" stroke="url(#paint3_linear_1022_300)" stroke-width="1.5" stroke-linecap="round" stroke-linejoin="round"/>
</g>
<defs>
<linearGradient id="paint0_linear_1022_300" x1="14.6037" y1="5.39644" x2="5.66768" y2="14.3324" gradientUnits="userSpaceOnUse">
<stop stop-color="#578DF6"/>
<stop offset="1" stop-color="#5757F6"/>
</linearGradient>
<linearGradient id="paint1_linear_1022_300" x1="11.8415" y1="12.0397" x2="11.421" y2="13.7217" gradientUnits="userSpaceOnUse">
<stop stop-color="#578DF6"/>
<stop offset="1" stop-color="#5757F6"/>
</linearGradient>
<linearGradient id="paint2_linear_1022_300" x1="7.50647" y1="7.72379" x2="7.49753" y2="7.72386" gradientUnits="userSpaceOnUse">
<stop stop-color="#578DF6"/>
<stop offset="1" stop-color="#5757F6"/>
</linearGradient>
<linearGradient id="paint3_linear_1022_300" x1="12.5065" y1="7.72379" x2="12.4975" y2="7.72386" gradientUnits="userSpaceOnUse">
<stop stop-color="#578DF6"/>
<stop offset="1" stop-color="#5757F6"/>
</linearGradient>
<clipPath id="clip0_1022_300">
<rect width="20" height="20" fill="white"/>
</clipPath>
</defs>
</svg>
