<svg width="26" height="24" viewBox="0 0 26 24" fill="none" xmlns="http://www.w3.org/2000/svg">
<path d="M18.5859 6.32032C16.1426 6.32032 14.1532 6.65337 13.1851 6.85122C12.9673 6.89607 12.8118 7.06292 12.8145 7.24825C12.8302 8.27972 13.0329 11.0615 14.5703 14.6038C16.0776 18.0761 17.7109 19.3786 18.3438 19.777C18.4881 19.868 18.6829 19.868 18.8272 19.777C19.4602 19.3786 21.0934 18.0761 22.6007 14.6038C24.1382 11.0609 24.3408 8.27972 24.3566 7.24825C24.3592 7.06292 24.2037 6.89607 23.986 6.85122C23.0179 6.65337 21.0285 6.32032 18.5859 6.32032ZM18.5859 20.4932C18.3825 20.4932 18.1792 20.4372 18.0014 20.3257C17.1533 19.7908 15.5024 18.3696 13.98 14.8623C12.396 11.2126 12.1874 8.32853 12.171 7.25814C12.1631 6.76153 12.5357 6.32361 13.0565 6.21677C14.0489 6.0143 16.0862 5.67333 18.5859 5.67333C21.0849 5.67333 23.1222 6.0143 24.1146 6.21677C24.6354 6.32361 25.0079 6.76153 25 7.25814C24.9836 8.32853 24.7744 11.2126 23.191 14.8623C21.6686 18.3696 20.0177 19.7908 19.1696 20.3257C18.9919 20.4372 18.7885 20.4932 18.5859 20.4932Z" fill="#F19B48"/>
<path d="M18.5859 20.4932C18.3825 20.4932 18.1792 20.4372 18.0014 20.3257C17.1533 19.7908 15.5024 18.3696 13.98 14.8623C12.396 11.2126 12.1874 8.32853 12.171 7.25814C12.1631 6.76153 12.5357 6.32361 13.0565 6.21677C14.0489 6.0143 16.0862 5.67333 18.5859 5.67333C21.0849 5.67333 23.1222 6.0143 24.1146 6.21677C24.6354 6.32361 25.0079 6.76153 25 7.25814C24.9836 8.32853 24.7744 11.2126 23.191 14.8623C21.6686 18.3696 20.0177 19.7908 19.1696 20.3257C18.9919 20.4372 18.7885 20.4932 18.5859 20.4932M18.5859 6.32032C16.1426 6.32032 14.1532 6.65337 13.1851 6.85122C12.9673 6.89607 12.8118 7.06292 12.8145 7.24825C12.8302 8.27972 13.0329 11.0615 14.5703 14.6038C16.0776 18.0761 17.7109 19.3786 18.3438 19.777C18.4881 19.868 18.6829 19.868 18.8272 19.777C19.4602 19.3786 21.0934 18.0761 22.6007 14.6038C24.1382 11.0609 24.3408 8.27972 24.3566 7.24825C24.3592 7.06292 24.2037 6.89607 23.986 6.85122C23.0179 6.65337 21.0285 6.32032 18.5859 6.32032Z" stroke="#F19B48"/>
<path d="M21.9695 11.843C21.938 11.843 21.9052 11.8384 21.8731 11.8285C21.7039 11.7751 21.6094 11.5931 21.6626 11.4229C21.8482 10.8274 22.0056 10.2279 22.1302 9.64094C22.167 9.46617 22.3381 9.3547 22.512 9.39229C22.6858 9.42923 22.7966 9.60137 22.7599 9.77614C22.6307 10.3829 22.4687 11.0022 22.2771 11.6162C22.2338 11.7547 22.1066 11.843 21.9695 11.843ZM19.2232 17.3836C19.1524 17.3836 19.0809 17.3605 19.0212 17.3124C18.8828 17.2003 18.8611 16.9965 18.9727 16.8573C19.6476 16.0151 20.2766 14.9256 20.844 13.6191C20.9155 13.4549 21.105 13.3804 21.2677 13.4516C21.431 13.5235 21.5051 13.7141 21.4343 13.8776C20.844 15.2375 20.1848 16.3765 19.4738 17.2636C19.4108 17.3427 19.317 17.3836 19.2232 17.3836Z" fill="#F19B48"/>
<path d="M19.2232 17.3836C19.1524 17.3836 19.0809 17.3605 19.0212 17.3124C18.8828 17.2003 18.8611 16.9965 18.9727 16.8573C19.6476 16.0151 20.2766 14.9256 20.844 13.6191C20.9155 13.4549 21.105 13.3804 21.2677 13.4516C21.431 13.5235 21.5051 13.7141 21.4343 13.8776C20.844 15.2375 20.1848 16.3765 19.4738 17.2636C19.4108 17.3427 19.317 17.3836 19.2232 17.3836M21.9695 11.843C21.938 11.843 21.9052 11.8384 21.8731 11.8285C21.7039 11.7751 21.6094 11.5931 21.6626 11.4229C21.8482 10.8274 22.0056 10.2279 22.1302 9.64094C22.167 9.46617 22.3381 9.3547 22.512 9.39229C22.6858 9.42923 22.7966 9.60137 22.7599 9.77614C22.6307 10.3829 22.4687 11.0022 22.2771 11.6162C22.2338 11.7547 22.1066 11.843 21.9695 11.843Z" stroke="#F19B48"/>
<path d="M13.7037 23C13.5122 23 13.322 22.9637 13.1416 22.8879C12.7907 22.7408 12.3224 22.3781 12.0836 21.4864C11.8783 20.7174 11.8829 19.6965 12.0974 18.452C12.5355 15.9175 12.3316 13.9891 11.5228 13.0229C11.0879 12.5032 10.4911 12.2506 9.69807 12.2506C9.1799 12.2506 8.73519 12.3429 8.3764 12.5243C7.07507 13.1812 6.72284 15.1208 7.29873 18.452C7.51322 19.6965 7.5178 20.7174 7.3125 21.4864C7.07375 22.3781 6.60544 22.7408 6.25452 22.8879C5.54679 23.184 4.69016 22.8773 4.17002 22.1413C3.12581 20.6633 2.36561 17.5498 2.23442 14.2087C2.17146 12.6232 1.91369 11.6702 1.64017 10.6612C1.32533 9.49913 1 8.29816 1 6.1099C1 4.74603 1.51751 3.46459 2.45809 2.50105C3.40326 1.53288 4.66655 1 6.01511 1C6.58969 1 7.15313 1.09695 7.69032 1.28887C8.34558 1.52168 9.02051 1.64303 9.69807 1.64896C10.375 1.64303 11.0506 1.52168 11.7052 1.28887C12.2424 1.09695 12.8064 1 13.381 1C16.1923 1 18.3948 3.19486 18.3948 5.99713C18.3948 6.17586 18.2505 6.32029 18.0728 6.32029C17.895 6.32029 17.7514 6.17586 17.7514 5.99713C17.7514 3.55825 15.8315 1.64765 13.381 1.64765C12.8799 1.64765 12.3886 1.73206 11.9203 1.89892C11.1975 2.15613 10.4504 2.29 9.7007 2.29594C9.69873 2.29594 9.69741 2.29594 9.69544 2.29594C8.94573 2.29 8.19865 2.15613 7.47583 1.89892C7.00751 1.73206 6.51623 1.64765 6.01511 1.64765C3.60463 1.64765 1.64345 3.64926 1.64345 6.1099C1.64345 8.21111 1.94385 9.31842 2.26131 10.491C2.53221 11.4902 2.81228 12.5237 2.87722 14.183C3.02218 17.8492 3.89454 20.6337 4.69475 21.7661C5.03386 22.2462 5.58548 22.4665 6.00658 22.2904C6.29125 22.171 7.18002 21.5497 6.66447 18.5628C6.37455 16.8857 6.31224 15.5633 6.4736 14.5213C6.67037 13.2537 7.21347 12.3871 8.08715 11.9459C8.53645 11.7184 9.07823 11.6036 9.69807 11.6036C10.6793 11.6036 11.4585 11.9406 12.0154 12.6061C13.2111 14.0353 13.0649 16.6344 12.7317 18.5628C12.2161 21.5497 13.1049 22.171 13.3895 22.2904C13.81 22.4671 14.3623 22.2462 14.7014 21.7661C15.2215 21.03 15.6925 19.7664 16.0276 18.2073C16.0657 18.0332 16.2369 17.9218 16.4107 17.96C16.5845 17.9976 16.6947 18.1697 16.6573 18.3445C16.3038 19.9867 15.7954 21.3354 15.2261 22.1413C14.8385 22.6894 14.2639 23 13.7037 23Z" fill="#F19B48"/>
<path d="M13.7037 23C13.5122 23 13.322 22.9637 13.1416 22.8879C12.7907 22.7408 12.3224 22.3781 12.0836 21.4864C11.8783 20.7174 11.8829 19.6965 12.0974 18.452C12.5355 15.9175 12.3316 13.9891 11.5228 13.0229C11.0879 12.5032 10.4911 12.2506 9.69807 12.2506C9.1799 12.2506 8.73519 12.3429 8.3764 12.5243C7.07507 13.1812 6.72284 15.1208 7.29873 18.452C7.51322 19.6965 7.5178 20.7174 7.3125 21.4864C7.07375 22.3781 6.60544 22.7408 6.25452 22.8879C5.54679 23.184 4.69016 22.8773 4.17002 22.1413C3.12581 20.6633 2.36561 17.5498 2.23442 14.2087C2.17146 12.6232 1.91369 11.6702 1.64017 10.6612C1.32533 9.49913 1 8.29816 1 6.1099C1 4.74603 1.51751 3.46459 2.45809 2.50105C3.40326 1.53288 4.66655 1 6.01511 1C6.58969 1 7.15313 1.09695 7.69032 1.28887C8.34558 1.52168 9.02051 1.64303 9.69807 1.64896C10.375 1.64303 11.0506 1.52168 11.7052 1.28887C12.2424 1.09695 12.8064 1 13.381 1C16.1923 1 18.3948 3.19486 18.3948 5.99713C18.3948 6.17586 18.2505 6.32029 18.0728 6.32029C17.895 6.32029 17.7514 6.17586 17.7514 5.99713C17.7514 3.55825 15.8315 1.64765 13.381 1.64765C12.8799 1.64765 12.3886 1.73206 11.9203 1.89892C11.1975 2.15613 10.4504 2.29001 9.70069 2.29594C9.69873 2.29594 9.69741 2.29594 9.69544 2.29594C8.94573 2.29001 8.19864 2.15613 7.47583 1.89892C7.00751 1.73206 6.51623 1.64765 6.01511 1.64765C3.60463 1.64765 1.64345 3.64926 1.64345 6.1099C1.64345 8.21111 1.94385 9.31842 2.26131 10.491C2.53221 11.4902 2.81228 12.5237 2.87722 14.183C3.02218 17.8492 3.89454 20.6337 4.69475 21.7661C5.03386 22.2462 5.58548 22.4665 6.00658 22.2904C6.29125 22.171 7.18002 21.5497 6.66447 18.5628C6.37455 16.8857 6.31224 15.5633 6.4736 14.5213C6.67037 13.2537 7.21347 12.3871 8.08715 11.9459C8.53645 11.7184 9.07823 11.6036 9.69807 11.6036C10.6793 11.6036 11.4585 11.9406 12.0154 12.6061C13.2111 14.0353 13.0649 16.6344 12.7317 18.5628C12.2161 21.5497 13.1049 22.171 13.3895 22.2904C13.81 22.4671 14.3623 22.2462 14.7014 21.7661C15.2215 21.03 15.6925 19.7664 16.0276 18.2073C16.0657 18.0332 16.2369 17.9218 16.4107 17.96C16.5845 17.9976 16.6947 18.1697 16.6573 18.3445C16.3038 19.9867 15.7954 21.3354 15.2261 22.1413C14.8385 22.6894 14.2639 23 13.7037 23" stroke="#F19B48"/>
</svg>
