<svg width="20" height="20" viewBox="0 0 20 20" fill="none" xmlns="http://www.w3.org/2000/svg">
<path d="M13.3333 17.5V15.8333C13.3333 14.9493 12.9821 14.1014 12.3569 13.4763C11.7318 12.8512 10.884 12.5 9.99992 12.5H4.16659C3.28253 12.5 2.43468 12.8512 1.80956 13.4763C1.18444 14.1014 0.833252 14.9493 0.833252 15.8333V17.5" stroke="url(#paint0_linear_1022_296)" stroke-width="1.5" stroke-linecap="round" stroke-linejoin="round"/>
<path d="M7.08333 9.16667C8.92428 9.16667 10.4167 7.67428 10.4167 5.83333C10.4167 3.99238 8.92428 2.5 7.08333 2.5C5.24238 2.5 3.75 3.99238 3.75 5.83333C3.75 7.67428 5.24238 9.16667 7.08333 9.16667Z" stroke="url(#paint1_linear_1022_296)" stroke-width="1.5" stroke-linecap="round" stroke-linejoin="round"/>
<path d="M14.1667 9.16667L15.8334 10.8333L19.1667 7.5" stroke="url(#paint2_linear_1022_296)" stroke-width="1.5" stroke-linecap="round" stroke-linejoin="round"/>
<defs>
<linearGradient id="paint0_linear_1022_296" x1="10.5359" y1="13.6189" x2="8.68712" y2="18.241" gradientUnits="userSpaceOnUse">
<stop stop-color="#578DF6"/>
<stop offset="1" stop-color="#5757F6"/>
</linearGradient>
<linearGradient id="paint1_linear_1022_296" x1="8.92477" y1="3.9919" x2="5.35037" y2="7.5663" gradientUnits="userSpaceOnUse">
<stop stop-color="#578DF6"/>
<stop offset="1" stop-color="#5757F6"/>
</linearGradient>
<linearGradient id="paint2_linear_1022_296" x1="18.0478" y1="8.24595" x2="16.3981" y2="10.7205" gradientUnits="userSpaceOnUse">
<stop stop-color="#578DF6"/>
<stop offset="1" stop-color="#5757F6"/>
</linearGradient>
</defs>
</svg>
