<?xml version="1.0" standalone="no"?>
<!DOCTYPE svg PUBLIC "-//W3C//DTD SVG 20010904//EN"
 "http://www.w3.org/TR/2001/REC-SVG-20010904/DTD/svg10.dtd">
<svg version="1.0" xmlns="http://www.w3.org/2000/svg"
 width="97.000000pt" height="97.000000pt" viewBox="0 0 97.000000 97.000000"
 preserveAspectRatio="xMidYMid meet">
<metadata>
Created by potrace 1.14, written by Peter Selinger 2001-2017
</metadata>
<g transform="translate(0.000000,97.000000) scale(0.100000,-0.100000)"
fill="#000000" stroke="none">
<path d="M165 924 c-44 -19 -83 -40 -87 -47 -26 -41 -79 -194 -74 -213 9 -33
41 -48 75 -36 l28 10 -11 -40 c-6 -24 -22 -48 -38 -60 -38 -26 -38 -69 -1 -98
15 -11 32 -37 39 -56 12 -35 12 -36 -11 -30 -34 9 -74 -10 -80 -37 -7 -27 60
-204 85 -224 30 -24 166 -73 203 -73 31 0 39 4 47 25 6 15 6 34 1 48 -9 23 -9
24 31 13 24 -6 48 -22 60 -38 26 -38 69 -38 98 -1 25 33 105 62 92 34 -10 -19
-9 -39 2 -63 13 -28 74 -22 157 13 41 17 82 38 91 46 26 23 90 192 83 220 -7
29 -46 46 -78 34 -23 -9 -24 -9 -13 31 6 24 22 48 38 60 38 27 38 69 -1 100
-16 13 -32 37 -36 55 -6 31 -5 32 23 28 32 -4 72 24 72 51 0 25 -74 198 -90
211 -30 24 -166 73 -203 73 -31 0 -39 -4 -47 -25 -6 -15 -6 -34 -1 -48 9 -23
9 -24 -31 -13 -24 6 -48 22 -60 38 -26 38 -69 38 -98 1 -25 -33 -105 -62 -92
-34 10 19 9 39 -2 64 -13 28 -80 20 -171 -19z"/>
</g>
</svg>
