<svg width="137" height="36" viewBox="0 0 137 36" fill="none" xmlns="http://www.w3.org/2000/svg">
	<path d="M48.429 13.305C48.429 12.6837 48.9327 12.18 49.554 12.18H52.386C53.0073 12.18 53.511 12.6837 53.511 13.305V28.545C53.511 29.1663 53.0073 29.67 52.386 29.67H49.554C48.9327 29.67 48.429 29.1663 48.429 28.545V13.305ZM50.97 10.53C50.024 10.53 49.287 10.288 48.759 9.804C48.253 9.298 48 8.66 48 7.89C48 7.12 48.253 6.493 48.759 6.009C49.287 5.503 50.024 5.25 50.97 5.25C51.916 5.25 52.642 5.503 53.148 6.009C53.676 6.493 53.94 7.12 53.94 7.89C53.94 8.66 53.676 9.298 53.148 9.804C52.642 10.288 51.916 10.53 50.97 10.53Z" fill="white" />
	<path d="M55.5733 13.6076C55.373 12.8904 55.9122 12.18 56.6569 12.18H59.7544C60.2798 12.18 60.7352 12.5436 60.8515 13.056L62.1216 18.6513C62.3794 19.7869 63.9811 19.8307 64.3005 18.7109L65.9308 12.9964C66.0686 12.5132 66.5102 12.18 67.0126 12.18H70.0863C70.5794 12.18 71.0151 12.5012 71.161 12.9723L73.0404 19.0429C73.3759 20.1265 74.9224 20.0888 75.2047 18.9902L76.7375 13.025C76.8653 12.5277 77.3136 12.18 77.8271 12.18H80.4225C81.1671 12.18 81.7063 12.8904 81.506 13.6076L77.2503 28.8476C77.1146 29.3338 76.6716 29.67 76.1668 29.67H72.7738C72.2779 29.67 71.8405 29.3453 71.697 28.8706L69.594 21.9145C69.2708 20.8457 67.756 20.8497 67.4385 21.9203L65.3794 28.8648C65.2378 29.3424 64.799 29.67 64.3008 29.67H60.9126C60.4078 29.67 59.9648 29.3338 59.829 28.8476L55.5733 13.6076Z" fill="white" />
	<path d="M91.4811 30.099C90.2051 30.099 89.0061 29.923 87.8841 29.571C86.7841 29.197 85.8271 28.636 85.0131 27.888C84.1991 27.14 83.5611 26.205 83.0991 25.083C82.6371 23.939 82.4061 22.608 82.4061 21.09V20.43C82.4061 18.978 82.6261 17.713 83.0661 16.635C83.5281 15.557 84.1441 14.655 84.9141 13.929C85.7061 13.203 86.6301 12.664 87.6861 12.312C88.7641 11.938 89.9191 11.751 91.1511 11.751C94.0331 11.751 96.2111 12.499 97.6851 13.995C99.1591 15.469 99.8961 17.614 99.8961 20.43V21.12C99.8961 21.7413 99.3924 22.245 98.7711 22.245H88.782C88.1465 22.245 87.6154 22.7789 87.7739 23.3944C87.8291 23.6088 87.8989 23.8086 87.9831 23.994C88.2031 24.456 88.4891 24.841 88.8411 25.149C89.1931 25.457 89.5891 25.688 90.0291 25.842C90.4911 25.974 90.9751 26.04 91.4811 26.04C92.4491 26.04 93.2081 25.897 93.7581 25.611C94.0459 25.456 94.2836 25.276 94.4712 25.0709C94.7943 24.7175 95.2011 24.39 95.6799 24.39H98.2154C98.9182 24.39 99.457 25.0327 99.2198 25.6943C98.7633 26.9676 98.0098 27.9629 96.9591 28.68C95.5731 29.626 93.7471 30.099 91.4811 30.099ZM91.3161 15.777C90.8541 15.777 90.4031 15.832 89.9631 15.942C89.5451 16.052 89.1601 16.239 88.8081 16.503C88.4781 16.745 88.2031 17.064 87.9831 17.46C87.9349 17.5564 87.892 17.658 87.8542 17.7647C87.6414 18.3665 88.1839 18.912 88.8222 18.912H93.7881C94.4094 18.912 94.9475 18.3959 94.7733 17.7995C94.7307 17.6535 94.6783 17.5183 94.6161 17.394C94.4181 16.998 94.1541 16.679 93.8241 16.437C93.5161 16.195 93.1421 16.03 92.7021 15.942C92.2621 15.832 91.8001 15.777 91.3161 15.777Z" fill="white" />
	<path d="M110.286 30.099C109.01 30.099 107.811 29.923 106.689 29.571C105.589 29.197 104.632 28.636 103.818 27.888C103.004 27.14 102.366 26.205 101.904 25.083C101.442 23.939 101.211 22.608 101.211 21.09V20.43C101.211 18.978 101.431 17.713 101.871 16.635C102.333 15.557 102.949 14.655 103.719 13.929C104.511 13.203 105.435 12.664 106.491 12.312C107.569 11.938 108.724 11.751 109.956 11.751C112.838 11.751 115.016 12.499 116.49 13.995C117.964 15.469 118.701 17.614 118.701 20.43V21.12C118.701 21.7413 118.197 22.245 117.576 22.245H107.587C106.951 22.245 106.42 22.7789 106.579 23.3944C106.634 23.6088 106.704 23.8086 106.788 23.994C107.008 24.456 107.294 24.841 107.646 25.149C107.998 25.457 108.394 25.688 108.834 25.842C109.296 25.974 109.78 26.04 110.286 26.04C111.254 26.04 112.013 25.897 112.563 25.611C112.851 25.456 113.088 25.276 113.276 25.0709C113.599 24.7175 114.006 24.39 114.485 24.39H117.02C117.723 24.39 118.262 25.0327 118.025 25.6943C117.568 26.9676 116.815 27.9629 115.764 28.68C114.378 29.626 112.552 30.099 110.286 30.099ZM110.121 15.777C109.659 15.777 109.208 15.832 108.768 15.942C108.35 16.052 107.965 16.239 107.613 16.503C107.283 16.745 107.008 17.064 106.788 17.46C106.74 17.5564 106.697 17.658 106.659 17.7647C106.446 18.3665 106.989 18.912 107.627 18.912H112.593C113.214 18.912 113.752 18.3959 113.578 17.7995C113.536 17.6535 113.483 17.5183 113.421 17.394C113.223 16.998 112.959 16.679 112.629 16.437C112.321 16.195 111.947 16.03 111.507 15.942C111.067 15.832 110.605 15.777 110.121 15.777Z" fill="white" />
	<path d="M120.676 7.695C120.676 7.07368 121.179 6.57 121.801 6.57H124.633C125.254 6.57 125.758 7.07368 125.758 7.695V15.8186C125.758 16.8692 127.07 17.3465 127.745 16.5413L131.064 12.5823C131.277 12.3273 131.593 12.18 131.926 12.18H134.74C135.694 12.18 136.215 13.2929 135.603 14.0256L131.546 18.8901C131.225 19.2745 131.197 19.8246 131.477 20.2396L136.653 27.9161C137.157 28.6633 136.622 29.67 135.72 29.67H132.565C132.188 29.67 131.836 29.4816 131.628 29.168L128.395 24.3064C127.982 23.6857 127.091 23.6308 126.605 24.1961L126.03 24.8658C125.854 25.0698 125.758 25.3299 125.758 25.599V28.545C125.758 29.1663 125.254 29.67 124.633 29.67H121.801C121.179 29.67 120.676 29.1663 120.676 28.545V7.695Z" fill="white" />
	<circle cx="18" cy="18" r="15" fill="#73DF8F" />
	<path fill-rule="evenodd" clip-rule="evenodd" d="M15.9607 33.6576C16.7132 35.4744 19.2866 35.4744 20.0391 33.6577L23.678 24.8726C23.902 24.3318 24.3317 23.9021 24.8725 23.6781L33.6576 20.0392C35.4743 19.2867 35.4743 16.7133 33.6576 15.9608L24.8725 12.3219C24.3317 12.0979 23.902 11.6682 23.678 11.1274L20.0391 2.34236C19.2866 0.525625 16.7132 0.525623 15.9607 2.34236L12.3218 11.1274C12.0978 11.6682 11.6681 12.0979 11.1273 12.3219L2.34229 15.9608C0.525554 16.7133 0.525549 19.2867 2.34229 20.0392L11.1273 23.6781C11.6681 23.9021 12.0978 24.3318 12.3218 24.8726L15.9607 33.6576Z" fill="url(#paint0_linear_1022_283)" />
	<path fill-rule="evenodd" clip-rule="evenodd" d="M12.8621 3.05809C13.6146 1.24136 11.7949 -0.578297 9.9782 0.174221L3.89041 2.69587C3.34958 2.91989 2.91989 3.34957 2.69587 3.89041L0.174221 9.9782C-0.578297 11.7949 1.24135 13.6146 3.05809 12.8621L9.14589 10.3404C9.68672 10.1164 10.1164 9.68672 10.3404 9.14589L12.8621 3.05809Z" fill="url(#paint1_linear_1022_283)" />
	<path fill-rule="evenodd" clip-rule="evenodd" d="M23.1378 3.05809C22.3853 1.24135 24.205 -0.578296 26.0217 0.174221L32.1095 2.69587C32.6503 2.91989 33.08 3.34957 33.304 3.89041L35.8257 9.9782C36.5782 11.7949 34.7586 13.6146 32.9418 12.8621L26.854 10.3404C26.3132 10.1164 25.8835 9.68672 25.6595 9.14589L23.1378 3.05809Z" fill="url(#paint2_linear_1022_283)" />
	<path fill-rule="evenodd" clip-rule="evenodd" d="M12.8621 32.9419C13.6146 34.7586 11.7949 36.5783 9.9782 35.8258L3.89041 33.3041C3.34958 33.0801 2.91989 32.6504 2.69587 32.1096L0.174221 26.0218C-0.578297 24.205 1.24135 22.3854 3.05809 23.1379L9.14588 25.6596C9.68671 25.8836 10.1164 26.3133 10.3404 26.8541L12.8621 32.9419Z" fill="url(#paint3_linear_1022_283)" />
	<path fill-rule="evenodd" clip-rule="evenodd" d="M32.9418 23.1379C34.7586 22.3854 36.5782 24.205 35.8257 26.0218L33.304 32.1096C33.08 32.6504 32.6503 33.0801 32.1095 33.3041L26.0217 35.8258C24.205 36.5783 22.3853 34.7586 23.1378 32.9419L25.6595 26.8541C25.8835 26.3133 26.3132 25.8836 26.854 25.6596L32.9418 23.1379Z" fill="url(#paint4_linear_1022_283)" />
	<defs>
		<linearGradient id="paint0_linear_1022_283" x1="27.4024" y1="8.59755" x2="9.15132" y2="26.8486" gradientUnits="userSpaceOnUse">
			<stop stop-color="#578DF6" />
			<stop offset="1" stop-color="#5757F6" />
		</linearGradient>
		<linearGradient id="paint1_linear_1022_283" x1="2.91733" y1="3.2852" x2="9.90686" y2="9.53899" gradientUnits="userSpaceOnUse">
			<stop stop-color="#578DF6" />
			<stop offset="1" stop-color="#5757F6" />
		</linearGradient>
		<linearGradient id="paint2_linear_1022_283" x1="33.0826" y1="2.91733" x2="26.0931" y2="9.90686" gradientUnits="userSpaceOnUse">
			<stop stop-color="#578DF6" />
			<stop offset="1" stop-color="#5757F6" />
		</linearGradient>
		<linearGradient id="paint3_linear_1022_283" x1="3.2852" y1="33.0827" x2="9.53899" y2="26.0931" gradientUnits="userSpaceOnUse">
			<stop stop-color="#578DF6" />
			<stop offset="1" stop-color="#5757F6" />
		</linearGradient>
		<linearGradient id="paint4_linear_1022_283" x1="33.0826" y1="33.0827" x2="26.4609" y2="26.0931" gradientUnits="userSpaceOnUse">
			<stop stop-color="#578DF6" />
			<stop offset="1" stop-color="#5757F6" />
		</linearGradient>
	</defs>
</svg>
